<?xml version="1.0" encoding="utf-8"?>
<!-- Generator: Adobe Illustrator 27.0.1, SVG Export Plug-In . SVG Version: 6.00 Build 0)  -->
<svg version="1.1" xmlns="http://www.w3.org/2000/svg" xmlns:xlink="http://www.w3.org/1999/xlink" x="0px" y="0px"
	 viewBox="0 0 40 40" style="enable-background:new 0 0 40 40;" xml:space="preserve">
<style type="text/css">
	.st0{fill:url(#XMLID_00000118368340002730678130000016935364567864094083_);}
	.st1{fill:#0A000F;}
	.st2{fill:#FFFFFF;}
	.st3{fill:url(#XMLID_00000157306541685550214690000011101984575623078584_);}
	.st4{fill:url(#XMLID_00000016778260071342226700000010094408157167125132_);}
	.st5{fill:url(#XMLID_00000167396229629492680670000014733822278695336383_);}
	.st6{fill:url(#XMLID_00000090264755300890690290000016100491614286286756_);}
	.st7{fill:#1D1D1B;}
	.st8{fill:none;stroke:#FFFFFF;stroke-width:2;stroke-miterlimit:10;}
</style>
<g id="Background">
</g>
<g id="Elements">
	<g>
		<path class="st8" d="M20.393,1.661L20.393,1.661c-9.87,0-17.946,8.076-17.946,17.946v0c0,9.87,8.076,17.946,17.946,17.946h0
			c9.87,0,17.946-8.076,17.946-17.946v0C38.339,9.736,30.264,1.661,20.393,1.661z"/>
		<path class="st2" d="M23.975,20.458h-3.182v10.241h-4.718V20.458h-2.244v-4.009h2.244v-2.594c0-1.855,0.881-4.76,4.76-4.76
			l3.495,0.015v3.891h-2.536c-0.416,0-1.001,0.208-1.001,1.093v2.359h3.594L23.975,20.458z M24.525,20.579"/>
	</g>
</g>
</svg>
