<?xml version="1.0" encoding="UTF-8"?>
<svg id="Elements" xmlns="http://www.w3.org/2000/svg" viewBox="0 0 40 40">
  <defs>
    <style>
      .cls-1 {
        fill: #fff;
      }
    </style>
  </defs>
  <path class="cls-1" d="M13.38,31.9c0,.16-.19,.29-.42,.29-.27,.02-.45-.1-.45-.29,0-.16,.19-.29,.42-.29,.24-.02,.45,.1,.45,.29Zm-2.51-.36c-.06,.16,.1,.35,.35,.4,.21,.08,.45,0,.5-.16,.05-.16-.1-.35-.35-.42-.21-.06-.44,.02-.5,.19h0Zm3.56-.14c-.23,.06-.4,.21-.37,.4,.02,.16,.23,.27,.48,.21,.23-.06,.4-.21,.37-.37-.02-.15-.24-.26-.48-.23ZM19.74,.5C8.56,.5,0,8.99,0,20.18c0,8.94,5.63,16.6,13.67,19.29,1.03,.19,1.4-.45,1.4-.98s-.02-3.26-.02-4.95c0,0-5.65,1.21-6.83-2.4,0,0-.92-2.35-2.24-2.95,0,0-1.85-1.27,.13-1.24,0,0,2.01,.16,3.11,2.08,1.77,3.11,4.73,2.22,5.88,1.69,.19-1.29,.71-2.19,1.29-2.72-4.51-.5-9.06-1.15-9.06-8.91,0-2.22,.61-3.33,1.9-4.75-.21-.52-.9-2.69,.21-5.48,1.69-.52,5.56,2.18,5.56,2.18,1.61-.45,3.35-.69,5.06-.69s3.45,.23,5.06,.69c0,0,3.88-2.71,5.56-2.18,1.1,2.8,.42,4.95,.21,5.48,1.29,1.43,2.08,2.54,2.08,4.75,0,7.78-4.75,8.4-9.26,8.91,.74,.64,1.37,1.85,1.37,3.74,0,2.72-.02,6.08-.02,6.74,0,.52,.37,1.16,1.4,.98,8.06-2.68,13.53-10.33,13.53-19.27C40,8.99,30.93,.5,19.74,.5ZM7.84,28.31c-.1,.08-.08,.27,.06,.42,.13,.13,.31,.19,.42,.08,.1-.08,.08-.27-.06-.42-.13-.13-.31-.19-.42-.08Zm-.87-.65c-.06,.1,.02,.23,.19,.31,.13,.08,.29,.06,.35-.06,.06-.1-.02-.23-.19-.31-.16-.05-.29-.02-.35,.06Zm2.61,2.87c-.13,.1-.08,.35,.1,.5,.19,.19,.42,.21,.52,.08,.1-.1,.06-.35-.1-.5-.18-.19-.42-.21-.52-.08Zm-.92-1.19c-.13,.08-.13,.29,0,.48s.35,.27,.45,.19c.13-.1,.13-.31,0-.5-.11-.19-.32-.27-.45-.16h0Z"/>
</svg>