<?xml version="1.0" encoding="UTF-8"?>
<svg id="Elements" xmlns="http://www.w3.org/2000/svg" viewBox="0 0 40 40">
  <defs>
    <style>
      .cls-1 {
        fill: #fff;
      }
    </style>
  </defs>
  <g>
    <path class="cls-1" d="M24.19,30.81H15.81c-3.65,0-6.62-2.97-6.62-6.62V15.81c0-3.65,2.97-6.62,6.62-6.62h8.38c3.65,0,6.62,2.97,6.62,6.62v8.38c0,3.65-2.97,6.62-6.62,6.62ZM15.81,10.81c-2.76,0-5,2.24-5,5v8.38c0,2.76,2.24,5,5,5h8.38c2.76,0,5-2.24,5-5V15.81c0-2.76-2.24-5-5-5H15.81Z"/>
    <path class="cls-1" d="M20,25.47c-3.02,0-5.47-2.45-5.47-5.47s2.45-5.47,5.47-5.47,5.47,2.45,5.47,5.47-2.45,5.47-5.47,5.47Zm0-9.28c-2.1,0-3.81,1.71-3.81,3.81s1.71,3.81,3.81,3.81,3.81-1.71,3.81-3.81-1.71-3.81-3.81-3.81Z"/>
    <path class="cls-1" d="M27.49,13.94c0,.79-.64,1.42-1.42,1.42s-1.42-.64-1.42-1.42,.64-1.42,1.42-1.42,1.42,.64,1.42,1.42Z"/>
  </g>
  <path class="cls-1" d="M28.03,40H11.97c-6.6,0-11.97-5.37-11.97-11.97V11.97C0,5.37,5.37,0,11.97,0H28.03C34.63,0,40,5.37,40,11.97V28.03c0,6.6-5.37,11.97-11.97,11.97ZM11.97,1.66C6.28,1.66,1.66,6.28,1.66,11.97V28.03c0,5.68,4.62,10.31,10.31,10.31H28.03c5.68,0,10.31-4.62,10.31-10.31V11.97c0-5.68-4.62-10.31-10.31-10.31H11.97Z"/>
</svg>