<?xml version="1.0" encoding="UTF-8"?>
<svg id="Elements" xmlns="http://www.w3.org/2000/svg" viewBox="0 0 40 40">
  <defs>
    <style>
      .cls-1 {
        fill: #fff;
      }
    </style>
  </defs>
  <path class="cls-1" d="M31.53,0H8.47C3.79,0,0,3.79,0,8.47V31.53C0,36.21,3.79,40,8.47,40H31.53c4.68,0,8.47-3.79,8.47-8.47V8.47C40,3.79,36.21,0,31.53,0ZM15.07,28.91h-4.14V15.54h4.14v13.37Zm-2.09-15.12c-1.35,0-2.45-1.11-2.45-2.47s1.1-2.47,2.45-2.47,2.45,1.1,2.45,2.47-1.1,2.47-2.45,2.47Zm17.6,15.12h-4.12v-7.02c0-1.92-.73-3-2.25-3-1.66,0-2.52,1.12-2.52,3v7.02h-3.97V15.54h3.97v1.8s1.19-2.21,4.03-2.21,4.87,1.73,4.87,5.31v8.47Z"/>
</svg>